<svg xmlns="http://www.w3.org/2000/svg" width="1100" height="221" viewBox="0 0 1100 221">
<rect width="100%" height="100%" fill="white"/>
<text x="80" y="24" font-family="Arial" font-size="18" font-weight="bold">Gantt Chart: EDD</text>
<text x="15" y="64" font-family="Arial" font-size="13">M01</text>
<line x1="80" y1="68" x2="1070" y2="68" stroke="#dddddd"/>
<text x="15" y="100" font-family="Arial" font-size="13">M02</text>
<line x1="80" y1="104" x2="1070" y2="104" stroke="#dddddd"/>
<text x="15" y="136" font-family="Arial" font-size="13">M03</text>
<line x1="80" y1="140" x2="1070" y2="140" stroke="#dddddd"/>
<text x="15" y="172" font-family="Arial" font-size="13">M04</text>
<line x1="80" y1="176" x2="1070" y2="176" stroke="#dddddd"/>
<rect x="89.6" y="155" width="57.7" height="22" fill="#1b9e77" stroke="#222222" stroke-width="0.6"/>
<text x="118.4" y="170" text-anchor="middle" font-family="Arial" font-size="9" fill="white">J038</text>
<rect x="99.2" y="47" width="28.8" height="22" fill="#1b9e77" stroke="#222222" stroke-width="0.6"/>
<text x="113.6" y="62" text-anchor="middle" font-family="Arial" font-size="9" fill="white">J004</text>
<rect x="147.3" y="119" width="67.3" height="22" fill="#1b9e77" stroke="#222222" stroke-width="0.6"/>
<text x="180.9" y="134" text-anchor="middle" font-family="Arial" font-size="9" fill="white">J028</text>
<rect x="156.9" y="47" width="173.0" height="22" fill="#1b9e77" stroke="#222222" stroke-width="0.6"/>
<text x="243.4" y="62" text-anchor="middle" font-family="Arial" font-size="9" fill="white">J027</text>
<rect x="195.3" y="83" width="48.1" height="22" fill="#1b9e77" stroke="#222222" stroke-width="0.6"/>
<text x="219.4" y="98" text-anchor="middle" font-family="Arial" font-size="9" fill="white">J014</text>
<rect x="205.0" y="155" width="125.0" height="22" fill="#1b9e77" stroke="#222222" stroke-width="0.6"/>
<text x="267.4" y="170" text-anchor="middle" font-family="Arial" font-size="9" fill="white">J009</text>
<rect x="243.4" y="83" width="96.1" height="22" fill="#1b9e77" stroke="#222222" stroke-width="0.6"/>
<text x="291.5" y="98" text-anchor="middle" font-family="Arial" font-size="9" fill="white">J002</text>
<rect x="243.4" y="119" width="48.1" height="22" fill="#1b9e77" stroke="#222222" stroke-width="0.6"/>
<text x="267.4" y="134" text-anchor="middle" font-family="Arial" font-size="9" fill="white">J018</text>
<rect x="291.5" y="119" width="38.4" height="22" fill="#1b9e77" stroke="#222222" stroke-width="0.6"/>
<text x="310.7" y="134" text-anchor="middle" font-family="Arial" font-size="9" fill="white">J039</text>
<rect x="329.9" y="47" width="48.1" height="22" fill="#1b9e77" stroke="#222222" stroke-width="0.6"/>
<text x="353.9" y="62" text-anchor="middle" font-family="Arial" font-size="9" fill="white">J022</text>
<rect x="329.9" y="119" width="125.0" height="22" fill="#1b9e77" stroke="#222222" stroke-width="0.6"/>
<text x="392.4" y="134" text-anchor="middle" font-family="Arial" font-size="9" fill="white">J032</text>
<rect x="329.9" y="155" width="48.1" height="22" fill="#1b9e77" stroke="#222222" stroke-width="0.6"/>
<text x="353.9" y="170" text-anchor="middle" font-family="Arial" font-size="9" fill="white">J015</text>
<rect x="339.5" y="83" width="38.4" height="22" fill="#1b9e77" stroke="#222222" stroke-width="0.6"/>
<text x="358.7" y="98" text-anchor="middle" font-family="Arial" font-size="9" fill="white">J021</text>
<rect x="378.0" y="47" width="48.1" height="22" fill="#1b9e77" stroke="#222222" stroke-width="0.6"/>
<text x="402.0" y="62" text-anchor="middle" font-family="Arial" font-size="9" fill="white">J040</text>
<rect x="378.0" y="83" width="67.3" height="22" fill="#1b9e77" stroke="#222222" stroke-width="0.6"/>
<text x="411.6" y="98" text-anchor="middle" font-family="Arial" font-size="9" fill="white">J036</text>
<rect x="416.4" y="155" width="28.8" height="22" fill="#1b9e77" stroke="#222222" stroke-width="0.6"/>
<text x="430.8" y="170" text-anchor="middle" font-family="Arial" font-size="9" fill="white">J031</text>
<rect x="426.0" y="47" width="134.6" height="22" fill="#1b9e77" stroke="#222222" stroke-width="0.6"/>
<text x="493.3" y="62" text-anchor="middle" font-family="Arial" font-size="9" fill="white">J017</text>
<rect x="445.2" y="83" width="96.1" height="22" fill="#1b9e77" stroke="#222222" stroke-width="0.6"/>
<text x="493.3" y="98" text-anchor="middle" font-family="Arial" font-size="9" fill="white">J020</text>
<rect x="454.9" y="119" width="105.7" height="22" fill="#1b9e77" stroke="#222222" stroke-width="0.6"/>
<text x="507.7" y="134" text-anchor="middle" font-family="Arial" font-size="9" fill="white">J007</text>
<rect x="464.5" y="155" width="57.7" height="22" fill="#1b9e77" stroke="#222222" stroke-width="0.6"/>
<text x="493.3" y="170" text-anchor="middle" font-family="Arial" font-size="9" fill="white">J001</text>
<rect x="522.1" y="155" width="105.7" height="22" fill="#1b9e77" stroke="#222222" stroke-width="0.6"/>
<text x="575.0" y="170" text-anchor="middle" font-family="Arial" font-size="9" fill="white">J011</text>
<rect x="541.4" y="83" width="28.8" height="22" fill="#1b9e77" stroke="#222222" stroke-width="0.6"/>
<text x="555.8" y="98" text-anchor="middle" font-family="Arial" font-size="9" fill="white">J005</text>
<rect x="560.6" y="47" width="76.9" height="22" fill="#1b9e77" stroke="#222222" stroke-width="0.6"/>
<text x="599.0" y="62" text-anchor="middle" font-family="Arial" font-size="9" fill="white">J019</text>
<rect x="560.6" y="119" width="57.7" height="22" fill="#1b9e77" stroke="#222222" stroke-width="0.6"/>
<text x="589.4" y="134" text-anchor="middle" font-family="Arial" font-size="9" fill="white">J010</text>
<rect x="570.2" y="83" width="67.3" height="22" fill="#1b9e77" stroke="#222222" stroke-width="0.6"/>
<text x="603.8" y="98" text-anchor="middle" font-family="Arial" font-size="9" fill="white">J024</text>
<rect x="618.3" y="119" width="76.9" height="22" fill="#1b9e77" stroke="#222222" stroke-width="0.6"/>
<text x="656.7" y="134" text-anchor="middle" font-family="Arial" font-size="9" fill="white">J034</text>
<rect x="627.9" y="155" width="125.0" height="22" fill="#d95f02" stroke="#222222" stroke-width="0.6"/>
<text x="690.3" y="170" text-anchor="middle" font-family="Arial" font-size="9" fill="white">J008</text>
<rect x="637.5" y="47" width="28.8" height="22" fill="#1b9e77" stroke="#222222" stroke-width="0.6"/>
<text x="651.9" y="62" text-anchor="middle" font-family="Arial" font-size="9" fill="white">J037</text>
<rect x="637.5" y="83" width="86.5" height="22" fill="#1b9e77" stroke="#222222" stroke-width="0.6"/>
<text x="680.7" y="98" text-anchor="middle" font-family="Arial" font-size="9" fill="white">J023</text>
<rect x="666.3" y="47" width="105.7" height="22" fill="#d95f02" stroke="#222222" stroke-width="0.6"/>
<text x="719.2" y="62" text-anchor="middle" font-family="Arial" font-size="9" fill="white">J025</text>
<rect x="695.1" y="119" width="105.7" height="22" fill="#d95f02" stroke="#222222" stroke-width="0.6"/>
<text x="748.0" y="134" text-anchor="middle" font-family="Arial" font-size="9" fill="white">J016</text>
<rect x="724.0" y="83" width="76.9" height="22" fill="#d95f02" stroke="#222222" stroke-width="0.6"/>
<text x="762.4" y="98" text-anchor="middle" font-family="Arial" font-size="9" fill="white">J033</text>
<rect x="752.8" y="155" width="153.8" height="22" fill="#d95f02" stroke="#222222" stroke-width="0.6"/>
<text x="829.7" y="170" text-anchor="middle" font-family="Arial" font-size="9" fill="white">J006</text>
<rect x="772.0" y="47" width="57.7" height="22" fill="#d95f02" stroke="#222222" stroke-width="0.6"/>
<text x="800.9" y="62" text-anchor="middle" font-family="Arial" font-size="9" fill="white">J012</text>
<rect x="800.9" y="83" width="48.1" height="22" fill="#d95f02" stroke="#222222" stroke-width="0.6"/>
<text x="824.9" y="98" text-anchor="middle" font-family="Arial" font-size="9" fill="white">J029</text>
<rect x="800.9" y="119" width="115.3" height="22" fill="#d95f02" stroke="#222222" stroke-width="0.6"/>
<text x="858.5" y="134" text-anchor="middle" font-family="Arial" font-size="9" fill="white">J013</text>
<rect x="829.7" y="47" width="144.2" height="22" fill="#d95f02" stroke="#222222" stroke-width="0.6"/>
<text x="901.8" y="62" text-anchor="middle" font-family="Arial" font-size="9" fill="white">J026</text>
<rect x="848.9" y="83" width="48.1" height="22" fill="#d95f02" stroke="#222222" stroke-width="0.6"/>
<text x="873.0" y="98" text-anchor="middle" font-family="Arial" font-size="9" fill="white">J003</text>
<rect x="897.0" y="83" width="115.3" height="22" fill="#d95f02" stroke="#222222" stroke-width="0.6"/>
<text x="954.7" y="98" text-anchor="middle" font-family="Arial" font-size="9" fill="white">J035</text>
<rect x="906.6" y="155" width="163.4" height="22" fill="#d95f02" stroke="#222222" stroke-width="0.6"/>
<text x="988.3" y="170" text-anchor="middle" font-family="Arial" font-size="9" fill="white">J030</text>
<text x="80" y="211" font-family="Arial" font-size="11">Green: on time or early. Orange: late.</text>
</svg>